<?xml version="1.0" encoding="utf-8"?>
<!-- Generator: Adobe Illustrator 18.1.1, SVG Export Plug-In . SVG Version: 6.00 Build 0)  -->
<svg version="1.1" id="Layer_1" xmlns="http://www.w3.org/2000/svg" xmlns:xlink="http://www.w3.org/1999/xlink" x="0px" y="0px"
	 viewBox="0 0 80 80" enable-background="new 0 0 80 80" xml:space="preserve">
<path fill="#919090" stroke="#919090" stroke-miterlimit="10" d="M60.9,75.7H17.7c-1.1,0-2-0.9-2-2V5.8c0-1.1,0.9-2,2-2h43.2
	c1.1,0,2,0.9,2,2v67.9C62.9,74.8,62,75.7,60.9,75.7z"/>
<rect x="18.5" y="7" fill="#FFFFFF" stroke="#FFFFFF" stroke-miterlimit="10" width="41.8" height="61.8"/>
<ellipse fill="#FFFFFF" stroke="#FFFFFF" stroke-miterlimit="10" cx="39.7" cy="72.6" rx="2.2" ry="2"/>
<ellipse fill="#FFFFFF" stroke="#898888" stroke-miterlimit="10" cx="25.9" cy="13.7" rx="3.4" ry="3.1"/>
<ellipse fill="#FFFFFF" stroke="#898888" stroke-miterlimit="10" cx="38.9" cy="13.7" rx="3.4" ry="3.1"/>
<ellipse fill="#FFFFFF" stroke="#898888" stroke-miterlimit="10" cx="51.9" cy="13.7" rx="3.4" ry="3.1"/>
<ellipse fill="#FFFFFF" stroke="#898888" stroke-miterlimit="10" cx="25.9" cy="26.7" rx="3.4" ry="3.1"/>
<ellipse fill="#FFFFFF" stroke="#898888" stroke-miterlimit="10" cx="38.9" cy="26.7" rx="3.4" ry="3.1"/>
<ellipse fill="#FFFFFF" stroke="#898888" stroke-miterlimit="10" cx="51.9" cy="26.7" rx="3.4" ry="3.1"/>
<ellipse fill="#FFFFFF" stroke="#898888" stroke-miterlimit="10" cx="25.9" cy="39.7" rx="3.4" ry="3.1"/>
<ellipse fill="#FFFFFF" stroke="#898888" stroke-miterlimit="10" cx="38.9" cy="39.7" rx="3.4" ry="3.1"/>
<ellipse fill="#FFFFFF" stroke="#898888" stroke-miterlimit="10" cx="51.9" cy="39.7" rx="3.4" ry="3.1"/>
<rect x="25.1" y="12.4" fill="none" width="1.7" height="2.5"/>
<text transform="matrix(1 0 0 1 25.0777 14.5537)" font-family="'MyriadPro-Regular'" font-size="3">1</text>
<rect x="38.1" y="12.4" fill="none" width="1.7" height="2.5"/>
<text transform="matrix(1 0 0 1 38.0777 14.5537)" font-family="'MyriadPro-Regular'" font-size="3">2</text>
<rect x="51.1" y="12.3" fill="none" width="1.7" height="2.5"/>
<text transform="matrix(1 0 0 1 51.0777 14.4299)" font-family="'MyriadPro-Regular'" font-size="3">3</text>
<rect x="25.1" y="25.3" fill="none" width="1.7" height="2.5"/>
<text transform="matrix(1 0 0 1 25.0777 27.4299)" font-family="'MyriadPro-Regular'" font-size="3">4</text>
<rect x="38.1" y="25.3" fill="none" width="1.7" height="2.5"/>
<text transform="matrix(1 0 0 1 38.0777 27.4299)" font-family="'MyriadPro-Regular'" font-size="3">5</text>
<rect x="51.1" y="25.7" fill="none" width="1.7" height="2.5"/>
<text transform="matrix(1 0 0 1 51.0777 27.788)" font-family="'MyriadPro-Regular'" font-size="3">6</text>
<rect x="25.1" y="38.7" fill="none" width="1.7" height="2.5"/>
<text transform="matrix(1 0 0 1 25.0777 40.8585)" font-family="'MyriadPro-Regular'" font-size="3">7</text>
<rect x="38.2" y="38.7" fill="none" width="1.7" height="2.5"/>
<text transform="matrix(1 0 0 1 38.1528 40.8585)" font-family="'MyriadPro-Regular'" font-size="3">8</text>
<rect x="51.1" y="38.7" fill="none" width="1.7" height="2.5"/>
<text transform="matrix(1 0 0 1 51.0777 40.8585)" font-family="'MyriadPro-Regular'" font-size="3">9</text>
<ellipse fill="#FFFFFF" stroke="#898888" stroke-miterlimit="10" cx="38.9" cy="52.7" rx="3.4" ry="3.1"/>
<rect x="38.1" y="51.7" fill="none" width="1.7" height="2.5"/>
<text transform="matrix(1 0 0 1 38.0777 53.8585)" font-family="'MyriadPro-Regular'" font-size="3">0</text>
<ellipse fill="#FFFFFF" stroke="#898888" stroke-miterlimit="10" cx="25.9" cy="52.7" rx="3.4" ry="3.1"/>
<rect x="25.2" y="52.1" fill="none" width="1.7" height="2.7"/>
<text transform="matrix(1 0 0 1 25.2311 54.2724)" font-family="'MyriadPro-Regular'" font-size="3">*</text>
<ellipse fill="#FFFFFF" stroke="#898888" stroke-miterlimit="10" cx="51.9" cy="52.7" rx="3.4" ry="3.1"/>
<rect x="51.1" y="51.7" fill="none" width="1.7" height="2.7"/>
<text transform="matrix(1 0 0 1 51.0626 53.7962)" font-family="'MyriadPro-Regular'" font-size="3">#</text>
</svg>
